<svg width="100" height="100" fill="none" xmlns="http://www.w3.org/2000/svg"><circle cx="47.5" cy="45.5" r="39.5" fill="#182B5C" fill-opacity=".556"/><g filter="url(#filter0_d)"><path fill-rule="evenodd" clip-rule="evenodd" d="M47 5C24.392 5 6 23.392 6 46s18.392 41 41 41 41-18.392 41-41S69.608 5 47 5zm0 80.251C25.352 85.251 7.749 67.648 7.749 46 7.749 24.352 25.352 6.749 47 6.749c21.648 0 39.251 17.603 39.251 39.251 0 21.648-17.603 39.251-39.251 39.251z" fill="#fff"/></g><g filter="url(#filter1_d)"><path fill-rule="evenodd" clip-rule="evenodd" d="M63.234 44.57L40.717 29.29c-.7-.513-2.567-.513-2.717 1.421v30.563a1.73 1.73 0 002.717 1.422l22.517-15.281c.584-.348 1.384-1.77 0-2.844zm-21.75 13.446V33.97l17.683 12.023-17.684 12.023z" fill="#fff"/></g><defs><filter id="filter0_d" x="0" y="0" width="100" height="100" filterUnits="userSpaceOnUse" color-interpolation-filters="sRGB"><feFlood flood-opacity="0" result="BackgroundImageFix"/><feColorMatrix in="SourceAlpha" values="0 0 0 0 0 0 0 0 0 0 0 0 0 0 0 0 0 0 127 0"/><feOffset dx="3" dy="4"/><feGaussianBlur stdDeviation="4.5"/><feColorMatrix values="0 0 0 0 0 0 0 0 0 0 0 0 0 0 0 0 0 0 0.5 0"/><feBlend in2="BackgroundImageFix" result="effect1_dropShadow"/><feBlend in="SourceGraphic" in2="effect1_dropShadow" result="shape"/></filter><filter id="filter1_d" x="32" y="24" width="44" height="52" filterUnits="userSpaceOnUse" color-interpolation-filters="sRGB"><feFlood flood-opacity="0" result="BackgroundImageFix"/><feColorMatrix in="SourceAlpha" values="0 0 0 0 0 0 0 0 0 0 0 0 0 0 0 0 0 0 127 0"/><feOffset dx="3" dy="4"/><feGaussianBlur stdDeviation="4.5"/><feColorMatrix values="0 0 0 0 0 0 0 0 0 0 0 0 0 0 0 0 0 0 0.5 0"/><feBlend in2="BackgroundImageFix" result="effect1_dropShadow"/><feBlend in="SourceGraphic" in2="effect1_dropShadow" result="shape"/></filter></defs></svg>